<svg width="56" height="60" viewBox="0 0 56 60" fill="none" xmlns="http://www.w3.org/2000/svg">
<path d="M8.7 41L8.73 40.52L8.61 35.66C8.61 35.57 8.61 34.97 8.64 34.7L8.7 33.29C8.7 33.11 8.7 32.99 8.73 32.96C9.06 32.42 9.24 32.15 9.24 32.15L9.57 31.73L10.17 30.71C10.47 30.26 10.77 29.84 11.07 29.42C11.1 29.39 11.16 29.27 11.25 29.12L11.22 28.97L8.91 30.95C8.88 30.77 8.88 30.62 8.88 30.53C8.88 30.08 9 29.57 9.18 29.33C9.93 28.28 9.93 28.28 9.93 28.07C9.93 27.83 9.75 27.65 9.27 27.44C9.36 27.2 9.42 27.02 9.48 26.99L10.56 26.24C10.8 26.06 11.07 25.67 11.07 25.49C11.07 25.28 10.77 25.1 10.47 25.1C10.2 25.1 10.02 25.16 9.6 25.37C9.51 25.34 9.45 25.31 9.45 25.19L9.63 24.68L9.66 24.56C9.99 24.26 10.23 23.84 10.23 23.6C10.23 23.39 10.2 23.36 9.75 23.12C9.12 22.64 8.79 22.55 7.89 22.55C7.44 22.55 7.35 22.58 7.11 22.88C7.05 22.94 6.93 23.09 6.81 23.24C7.86 23.54 7.86 23.57 7.86 23.96L7.8 24.47C7.65 26.21 7.65 26.21 7.59 26.48C7.53 26.81 7.53 26.81 6.09 27.74C3.12 29.66 1.71 30.41 0.93 30.41C0.66 30.41 0.42 30.26 0.12 29.84L0.0600002 29.9C5.96046e-08 30.14 0 30.26 0 30.38C0 31.19 0.24 31.52 1.2 32.03L1.44 32.18C1.77 32.36 2.07 32.48 2.28 32.48C2.4 32.48 2.55 32.39 2.7 32.24C2.91 32.03 3.48 31.52 4.44 30.71L6.33 29.3L7.17 28.58C7.2 28.55 7.32 28.49 7.47 28.37C7.5 28.58 7.5 28.73 7.5 28.88C7.5 29.45 7.5 29.45 6.18 31.88C5.46 33.23 4.5 34.49 4.08 34.7C3.99 34.76 3.87 34.82 3.75 34.85C3.72 34.88 3.6 34.94 3.45 35.03C3.39 35.24 3.39 35.24 3.3 35.54C3.21 35.75 3.21 35.75 3.21 35.81C3.21 36.44 3.93 37.43 4.38 37.43C4.5 37.43 4.59 37.4 4.71 37.28C4.74 37.13 4.77 37.04 4.8 37.01C5.01 36.8 5.19 36.59 5.4 36.41C6.27 35.39 6.75 34.88 6.81 34.79C6.99 34.61 7.08 34.52 7.35 34.28C7.38 34.94 7.38 35.39 7.38 35.87C7.38 37.37 7.2 39.02 7.02 39.38C6.63 40.07 6.6 40.1 6.6 40.25C6.6 40.88 7.47 42.05 8.13 42.29C8.43 42.05 8.58 41.9 8.61 41.75L8.7 41ZM2.73 23.48H2.88H3.18C4.05 23.45 4.2 23.42 4.83 23.21C5.13 23.09 6.54 22.37 9.03 21.08C9.57 20.84 10.11 20.6 10.68 20.36C10.8 20.3 10.89 20.24 10.95 20.18L11.07 20C11.28 19.79 11.28 19.79 11.28 19.67C11.28 19.07 9.45 18.08 8.4 18.08C8.04 18.08 7.8 18.2 7.5 18.53C7.98 18.83 8.16 19.01 8.16 19.25C8.16 19.67 7.41 20.48 6.54 21.02C6.09 21.26 5.67 21.53 5.25 21.8C4.62 22.16 4.17 22.46 3.84 22.67C3.45 22.91 3.09 23.15 2.73 23.39V23.48ZM16.8 34.01C16.83 33.98 16.89 33.68 17.01 33.26C17.01 33.23 17.07 33.05 17.13 32.9L17.34 32.87C17.52 33.08 17.67 33.26 17.76 33.32L19.23 34.52C19.5 34.73 19.71 34.94 19.89 35.15L20.7 36.14C21.36 36.89 21.72 37.31 21.78 37.37C21.9 37.55 21.96 37.64 22.14 37.88C21.57 38.33 21.36 38.42 20.88 38.48C21.18 38.72 21.33 38.81 21.39 38.84C21.6 38.93 21.81 39.02 22.05 39.14L23.43 39.95L23.67 40.07L23.97 40.19C24.21 40.31 24.21 40.31 24.51 40.34C24.6 40.07 24.6 40.07 24.81 39.71C24.84 39.65 24.87 39.59 24.87 39.5C24.87 39.17 24.63 38.66 24.21 38.18L20.82 34.25C20.61 34.1 20.43 33.95 20.28 33.8C19.89 33.35 19.74 33.23 19.35 32.9L19.17 32.75C18.72 32.36 18.24 31.97 17.79 31.61L17.49 31.34L18.03 27.83C18.33 27.8 18.39 27.77 18.57 27.68C19.23 27.29 19.86 26.9 20.49 26.51C20.64 26.42 20.79 26.36 20.97 26.27C21.72 25.94 22.17 25.76 22.26 25.73C23.79 25.4 23.79 25.4 23.79 25.04C23.79 24.65 23.52 24.38 22.71 23.9C21.84 23.39 21.84 23.39 21.45 23.39C20.91 23.39 20.67 23.48 20.28 23.81C20.73 24.11 20.85 24.26 20.85 24.5C20.85 24.92 20.85 24.92 18.96 26.6L18.6 26.96C18.6 26.99 18.54 27.02 18.42 27.11C18.36 27.17 18.24 27.26 18.09 27.32L18.12 26.81L18.54 21.59C18.6 21.14 18.6 21.11 18.9 20.87C18.93 20.84 19.05 20.75 19.17 20.66C19.11 20.09 18.75 19.64 18.06 19.34C17.58 19.13 16.8 18.89 16.56 18.89C16.11 18.89 15.93 19.04 15.51 19.7C15.93 19.85 16.32 20.33 16.41 20.72L16.65 25.94C16.62 26.3 16.59 26.63 16.59 26.93C16.5 29.87 16.44 30.65 16.11 31.76C15.9 32.93 15.51 33.92 14.67 35.39L14.7 35.42C14.55 35.54 14.43 35.63 14.4 35.69L13.77 36.44L13.32 36.8L12.54 37.46L12 37.79L11.43 38.15C10.92 38.39 10.38 38.63 9.84 38.87C9.84 38.87 9.75 38.93 9.63 39.02C10.14 39.08 10.23 39.11 10.74 39.23C11.25 39.35 11.25 39.35 11.4 39.35C12.81 39.35 14.43 38.39 15.18 37.16C15.96 35.87 15.99 35.84 16.59 34.43L16.8 34.01ZM12.12 29L12.3 29.27C13.02 30.29 13.02 30.29 13.41 30.29C13.74 30.29 13.95 30.2 14.1 30.02C15.21 28.7 15.42 28.43 15.45 28.37C15.9 27.26 15.9 27.26 15.9 27.14C15.9 27.11 15.9 27.02 15.87 26.93C14.67 27.77 14.31 27.98 13.89 27.98C13.44 27.98 13.08 27.68 12.39 26.78C12.3 27.02 12.3 27.02 12.06 27.47C11.97 27.62 11.91 27.95 11.91 28.16C11.91 28.34 11.91 28.34 12.06 28.58L12.12 29Z" fill="#333333"/>
<path d="M30.09 33.74C30.3 34.01 30.36 34.07 30.57 34.19L30.6 34.16C30.57 34.19 30.57 34.19 30.57 34.22C30.57 34.4 31.59 34.88 31.98 34.88C32.85 34.88 33.54 34.64 34.41 34.01C36.54 32.48 36.54 32.48 36.99 31.94C37.41 31.46 37.41 31.46 38.1 30.8L39.96 29.15C40.62 28.55 41.07 28.13 41.19 27.98C41.34 27.8 41.52 27.62 41.55 27.62C41.64 27.56 41.7 27.53 41.73 27.5L41.76 27.35C42.39 26.78 42.39 26.78 42.72 26.78C43.38 26.78 44.34 27.26 45.27 28.04L49.02 31.22C49.41 31.52 49.83 31.82 50.37 32.18C51.12 32.96 51.63 33.17 52.8 33.26C53.28 33.38 53.28 33.38 53.49 33.38C53.94 33.38 54.45 33.29 54.93 33.11C55.17 33.02 55.32 32.96 55.38 32.96C55.56 32.9 55.59 32.87 55.65 32.75C55.23 32.33 54.78 32.03 54.21 31.73C53.94 31.61 53.13 31.25 51.9 30.71C51.3 30.44 50.76 30.17 50.61 30.08C49.8 29.54 49.02 29.03 48.24 28.52L47.37 28.04L46.11 27.29C45.72 27.08 45.33 26.87 44.94 26.69C44.85 26.63 44.61 26.48 44.28 26.24C44.07 26.06 43.86 25.94 43.8 25.91C43.62 25.82 43.62 25.79 43.59 25.64L44.1 25.25C44.4 25.01 44.43 24.98 44.43 24.83C44.43 24.38 43.11 23.66 42.27 23.66C42.15 23.66 42.06 23.66 42 23.69C41.85 23.78 41.7 23.84 41.55 23.9C41.55 23.93 41.4 23.96 41.25 24.02L41.7 24.44C41.73 24.59 41.76 24.74 41.76 24.8C41.76 25.16 41.73 25.22 40.74 26.48L39.72 27.77C39.48 28.07 39.27 28.31 39.06 28.49C38.61 28.88 38.19 29.24 37.74 29.6L36.36 30.83L35.22 31.67L34.47 32.21L33.81 32.57L33.21 32.9C32.85 33.11 32.58 33.23 32.4 33.32C31.86 33.56 31.8 33.56 30.42 33.71L30.09 33.74ZM40.14 25.25C40.35 25.01 40.38 24.95 40.41 24.62C40.47 23.96 40.5 23.3 40.56 22.7C40.56 22.58 40.62 22.52 40.77 22.4C40.83 22.37 40.83 22.37 41.34 22.01L42.39 21.74L42.63 21.65C42.69 21.65 42.81 21.71 43.02 21.8C43.05 21.83 43.17 21.86 43.29 21.92L43.59 22.04L44.73 22.16L44.79 22.19C44.64 23.06 44.55 23.36 44.31 23.87L44.67 23.99C45.42 23.69 45.93 23.12 46.38 22.1C46.74 21.98 46.77 21.98 48.57 21.86C49.2 21.8 50.52 21.56 51.03 21.35C51.27 21.26 51.48 20.96 51.48 20.75C51.48 20.36 50.61 19.73 50.01 19.67L49.32 19.58C49.26 19.58 49.11 19.55 48.93 19.52C49.08 19.82 49.11 19.97 49.11 20.12C49.11 20.27 49.02 20.42 48.87 20.48C48.78 20.54 47.28 20.81 47.1 20.81C47.04 20.81 46.92 20.78 46.74 20.75L46.8 20.45L46.86 20.03L46.95 19.61C47.16 19.01 47.19 18.95 47.37 18.62C48 18.59 48.21 18.53 48.21 18.29C48.21 17.81 46.74 17 45.87 17C45.57 17 45.48 17.06 44.91 17.48C44.88 17.51 44.73 17.6 44.58 17.69C44.61 17.72 44.76 17.87 45 18.08C45.24 18.32 45.27 18.38 45.27 18.65C45.27 19.85 45.21 20.51 45.06 20.96H44.7C44.58 20.96 44.58 20.96 44.16 20.87H43.83L43.35 20.84L43.14 20.87L42.63 20.78C42.6 20.78 42.36 20.84 42 20.93L41.4 21.05L40.95 21.23C40.89 21.23 40.77 21.26 40.62 21.32L40.65 20.96C40.71 20.36 40.74 19.97 40.74 19.88C40.77 19.4 40.8 19.37 41.16 19.13C41.25 18.98 41.28 18.83 41.28 18.74C41.28 18.26 39.81 17.54 38.85 17.54C38.61 17.54 38.22 17.72 38.07 17.87L37.8 18.14C37.77 18.2 37.65 18.26 37.5 18.35C37.86 18.59 37.92 18.62 38.37 18.74C38.7 19.07 38.82 19.7 38.85 20.99L38.88 21.8C38.4 21.95 38.4 21.95 37.29 22.34C36.45 22.61 35.58 22.82 35.28 22.82C34.95 22.82 34.68 22.67 34.23 22.22C33.42 22.85 33.42 22.85 33.42 23.24C33.42 23.51 33.42 23.51 34.05 24.08C34.92 25.07 35.13 25.22 35.4 25.22C35.46 25.22 35.52 25.22 35.55 25.19C38.55 23.18 38.55 23.18 38.79 23.18C38.85 23.18 38.94 23.18 39.03 23.21C39.09 23.51 39.09 23.51 39.12 23.75C39.15 24.59 39.15 24.59 39.18 24.68C39.3 25.1 39.51 25.4 39.75 25.4C39.84 25.4 39.93 25.37 40.02 25.25H40.14ZM40.29 37.04C39.87 37.19 39.87 37.19 38.61 37.94C38.25 38.15 37.86 38.27 37.47 38.27C36.99 38.27 36.78 38.15 36.39 37.64L36.24 37.52C35.55 38.15 35.43 38.33 35.43 38.78C35.43 39.14 35.43 39.14 36.72 39.68C37.65 40.19 37.65 40.19 37.8 40.19C38.22 40.19 38.22 40.19 39.06 39.14C40.32 37.67 40.32 37.67 40.29 37.19V37.04ZM42.18 35.51L42.21 36.29V37.13L42.3 38.57C42.33 39.11 42.18 40.43 42.03 40.82C41.88 40.85 41.76 40.85 41.67 40.85C41.43 40.85 41.07 40.73 40.77 40.52L40.2 40.16C40.14 40.13 40.05 40.07 39.9 39.98C40.14 40.43 40.32 40.7 40.41 40.82C40.77 41.21 41.13 41.6 41.52 42.02C42.39 43.16 42.51 43.28 42.9 43.28C43.02 43.28 43.17 43.19 43.23 43.1C43.77 42.29 43.77 42.29 43.77 42.23L43.41 36.86C43.38 36.71 43.38 36.53 43.38 36.44C43.38 36.2 43.38 36.02 43.41 35.63C43.44 35.03 43.44 34.7 43.44 34.4C43.44 34.22 43.47 34.1 43.53 34.04C43.59 33.95 44.37 33.77 46.47 33.44C46.89 33.35 46.98 33.29 47.04 32.93L47.1 32.87L47.22 32.66C46.77 32.09 46.2 31.76 45.63 31.76C45.51 31.76 45.51 31.76 44.76 32.12L44.1 32.27C44.07 32.27 43.92 32.33 43.8 32.36C43.71 32.3 43.68 32.24 43.68 32.18L43.89 31.37C43.98 31.04 44.04 30.8 44.07 30.62C44.07 30.59 44.13 30.5 44.19 30.44C44.25 30.32 44.34 30.23 44.4 30.14C44.19 29.48 43.29 28.97 42.36 28.97C41.88 28.97 41.49 29.18 41.19 29.66C42.15 30.05 42.33 30.26 42.33 31.01C42.33 31.16 42.33 31.28 42.3 31.82C42.27 32.15 42.27 32.3 42.24 32.78C42.09 32.84 42 32.87 41.94 32.9C41.67 32.99 41.4 33.08 41.1 33.2C39.18 33.71 39.18 33.71 39.03 33.71C38.76 33.71 38.58 33.56 38.43 33.14C38.31 33.08 38.28 33.08 38.22 33.08C38.01 33.08 37.68 33.68 37.68 34.07C37.68 34.28 37.74 34.37 38.07 34.7C38.67 35.3 38.79 35.39 39.09 35.39C39.54 35.39 40.17 35.21 40.8 34.91C41.46 34.61 41.7 34.52 42.15 34.49C42.18 34.73 42.18 35 42.18 35V35.51ZM46.98 38.48C47.85 38.93 48.39 39.08 49.08 39.08C49.68 39.08 50.16 38.63 50.16 38.12C50.16 37.73 50.04 37.64 48.48 36.74C47.13 35.96 47.13 35.96 46.59 35.96H46.41H46.17V35.99L46.2 36.02L46.35 36.29C46.41 36.32 46.62 36.5 46.92 36.74C47.28 37.01 47.55 37.4 47.55 37.7C47.55 37.76 47.55 37.88 47.52 37.97L46.98 38.48Z" fill="#333333"/>
</svg>
